<svg id="Layer_1" data-name="Layer 1" xmlns="http://www.w3.org/2000/svg" viewBox="0 0 708 398"><defs><style>.cls-1{fill:#e55b2d;}.cls-2{fill:#ed8e24;}.cls-3{fill:#f8bf3c;}</style></defs><g id="layer1"><g id="g4550"><path id="path4508" class="cls-1" d="M371.68,107.15V148l70.7,40.83V148ZM230.27,148V188.8l35.35,20.4V168.39Zm106,20.42L301,188.8V311.26l35.35,20.41V250l35.36,20.41V229.61L336.32,209.2Z"/><path id="path4491" class="cls-2" d="M371.68,107.15,265.62,168.39V209.2l70.7-40.81V209.2l35.36-20.4Zm106.05,20.41L442.38,148V188.8l35.35-20.41ZM407,209.2l-35.35,20.41v40.83L407,250Zm-35.35,61.24L336.32,250v81.64l35.36-20.41Z"/><path id="path4506" class="cls-3" d="M371.68,66.33,230.27,148l35.35,20.42,106.06-61.24L442.38,148l35.35-20.41Zm0,122.47-35.36,20.4,35.36,20.41L407,209.2Z"/></g></g></svg>